<?xml version="1.0" encoding="UTF-8"?>
<svg width="700pt" height="700pt" version="1.1" viewBox="0 0 700 700" xmlns="http://www.w3.org/2000/svg">
 <path d="m409.97 357.47c-24.324 17.324-54.074 27.527-86.223 27.527-82.145 0-148.75-66.605-148.75-148.75s66.605-148.75 148.75-148.75 148.75 66.605 148.75 148.75c0 32.148-10.203 61.898-27.527 86.223l97.738 97.738c9.625 9.625 9.5547 25.043 0 34.578l-0.40234 0.40234c-9.5195 9.5195-25.043 9.5547-34.578 0l-97.738-97.738zm-86.223-7.4727c62.824 0 113.75-50.926 113.75-113.75s-50.926-113.75-113.75-113.75-113.75 50.926-113.75 113.75 50.926 113.75 113.75 113.75z"/>
</svg>
